<?xml version="1.0" encoding="UTF-8"?>
<svg xmlns="http://www.w3.org/2000/svg" xmlns:xlink="http://www.w3.org/1999/xlink" width="45px" height="45px" viewBox="0 0 45 45" version="1.1">
<g id="surface1">
<path style=" stroke:none;fill-rule:nonzero;fill:rgb(0%,0%,0%);fill-opacity:1;" d="M 22.359375 1.683594 C 14.179688 2.410156 7.476562 8.449219 5.277344 17.074219 C 4.851562 18.722656 4.710938 19.855469 4.671875 21.929688 C 4.621094 24.15625 4.746094 25.550781 5.144531 27.335938 C 5.980469 31.070312 7.597656 34.257812 10.0625 37.019531 C 11.640625 38.785156 13.175781 40.027344 15.066406 41.070312 C 17.902344 42.617188 20.535156 43.296875 23.746094 43.296875 C 27.21875 43.296875 30.722656 42.238281 33.640625 40.289062 C 38.496094 37.054688 41.707031 31.765625 42.617188 25.5 C 42.84375 23.941406 42.816406 20.707031 42.570312 19.175781 C 41.855469 14.78125 40.195312 11.167969 37.457031 8.070312 C 34.488281 4.710938 30.664062 2.554688 26.398438 1.855469 C 25.570312 1.722656 23.128906 1.621094 22.359375 1.683594 Z M 25.34375 2.265625 C 31.71875 2.898438 37.183594 6.902344 40.222656 13.132812 C 41.09375 14.9375 41.796875 17.320312 42.113281 19.566406 C 42.320312 21.015625 42.320312 24.023438 42.121094 25.433594 C 41.433594 30.21875 39.316406 34.527344 36.121094 37.636719 C 35.683594 38.0625 35.300781 38.40625 35.269531 38.40625 C 35.234375 38.40625 35.160156 38.1875 35.09375 37.925781 C 34.945312 37.28125 34.3125 35.578125 34 34.972656 C 32.4375 31.957031 30.714844 30.550781 27.941406 30.027344 C 27.128906 29.875 26.691406 29.699219 26.441406 29.457031 C 26.191406 29.222656 25.960938 28.648438 25.917969 28.1875 L 25.867188 27.761719 L 26.398438 27.472656 C 27.695312 26.75 28.855469 25.335938 29.527344 23.667969 C 29.984375 22.527344 30.148438 21.585938 30.148438 20.152344 C 30.140625 18.542969 29.957031 17.644531 29.335938 16.257812 C 28.597656 14.621094 27.585938 13.476562 26.257812 12.78125 C 25.28125 12.273438 24.90625 12.183594 23.6875 12.183594 C 22.722656 12.183594 22.53125 12.210938 21.878906 12.445312 C 19.398438 13.332031 17.5625 16.023438 17.230469 19.265625 C 17.066406 20.914062 17.347656 22.519531 18.078125 24.140625 C 18.75 25.617188 19.703125 26.722656 20.933594 27.425781 L 21.496094 27.761719 L 21.453125 28.171875 C 21.378906 28.785156 21.007812 29.527344 20.65625 29.71875 C 20.5 29.808594 19.886719 29.992188 19.296875 30.117188 C 17.449219 30.515625 16.527344 31.03125 15.390625 32.28125 C 14.179688 33.613281 13.367188 35.144531 12.683594 37.320312 C 12.496094 37.945312 12.320312 38.46875 12.3125 38.488281 C 12.253906 38.558594 11.085938 37.4375 10.3125 36.566406 C 7.699219 33.605469 6 29.890625 5.351562 25.726562 C 5.160156 24.527344 5.09375 21.648438 5.226562 20.371094 C 5.625 16.414062 7.125 12.507812 9.390625 9.554688 C 10.203125 8.496094 11.539062 7.09375 12.527344 6.277344 C 16.160156 3.289062 20.847656 1.8125 25.34375 2.265625 Z M 25.34375 2.265625 "/>
</g>
</svg>
